<svg xmlns="http://www.w3.org/2000/svg" width="41.406" height="50" viewBox="0 0 41.406 50">
  <g id="Group_2" data-name="Group 2" transform="translate(-74 -45)">
    <g id="Group_1" data-name="Group 1" transform="translate(74 45)">
      <path id="Path_1" data-name="Path 1" d="M68.957,56.332V29.762A9.75,9.75,0,0,1,78.695,20H72.766A9.766,9.766,0,0,0,63,29.766V56.328a9.766,9.766,0,0,0,9.766,9.766h5.929a9.75,9.75,0,0,1-9.738-9.762Z" transform="translate(-61.145 -18.047)" fill="#adc8ff"/>
      <path id="Path_2" data-name="Path 2" d="M73.688,50H55.719A11.732,11.732,0,0,1,44,38.281V11.719A11.732,11.732,0,0,1,55.719,0H73.688A11.732,11.732,0,0,1,85.406,11.719V38.281A11.732,11.732,0,0,1,73.688,50ZM55.719,3.906a7.821,7.821,0,0,0-7.813,7.813V38.281a7.821,7.821,0,0,0,7.813,7.813H73.688A7.821,7.821,0,0,0,81.5,38.281V11.719a7.821,7.821,0,0,0-7.812-7.813ZM75.25,9.57a1.953,1.953,0,1,0-3.906,0,2.933,2.933,0,0,1-2.93,2.93H60.992a2.933,2.933,0,0,1-2.93-2.93,1.953,1.953,0,1,0-3.906,0,6.844,6.844,0,0,0,6.836,6.836h7.422A6.844,6.844,0,0,0,75.25,9.57Z" transform="translate(-44)" fill="#254eda"/>
      <path id="Path_3" data-name="Path 3" d="M162.606,256.89a6.016,6.016,0,0,1-4.3-1.8l-3.738-3.771a1.953,1.953,0,1,1,2.774-2.75l3.738,3.771a2.143,2.143,0,0,0,3.054,0l7.72-7.769a1.953,1.953,0,1,1,2.771,2.753l-7.718,7.767A6.015,6.015,0,0,1,162.606,256.89Z" transform="translate(-143.258 -220.171)" fill="#4eb92b"/>
    </g>
  </g>
</svg>
