<svg xmlns="http://www.w3.org/2000/svg" width="36.883" height="36.883" viewBox="0 0 36.883 36.883">
  <g id="settings" transform="translate(4.941 4.941)">
    <circle id="Ellipse_4" data-name="Ellipse 4" cx="3.409" cy="3.409" r="3.409" transform="translate(10.091 10.091)" fill="none" stroke="#254eda" stroke-linecap="round" stroke-linejoin="round" stroke-width="2"/>
    <path id="Path_10" data-name="Path 10" d="M21.909,16.909a1.875,1.875,0,0,0,.375,2.068l.068.068a2.274,2.274,0,1,1-3.216,3.216l-.068-.068a1.89,1.89,0,0,0-3.2,1.341v.193a2.273,2.273,0,1,1-4.545,0v-.1a1.875,1.875,0,0,0-1.227-1.716,1.875,1.875,0,0,0-2.068.375l-.068.068a2.274,2.274,0,1,1-3.216-3.216l.068-.068a1.89,1.89,0,0,0-1.341-3.2H3.273a2.273,2.273,0,0,1,0-4.545h.1a1.875,1.875,0,0,0,1.716-1.227,1.875,1.875,0,0,0-.375-2.068l-.068-.068A2.274,2.274,0,1,1,7.864,4.739l.068.068A1.875,1.875,0,0,0,10,5.182h.091a1.875,1.875,0,0,0,1.136-1.716V3.273a2.273,2.273,0,0,1,4.545,0v.1a1.89,1.89,0,0,0,3.2,1.341l.068-.068a2.274,2.274,0,1,1,3.216,3.216l-.068.068A1.875,1.875,0,0,0,21.818,10v.091a1.875,1.875,0,0,0,1.716,1.136h.193a2.273,2.273,0,1,1,0,4.545h-.1A1.875,1.875,0,0,0,21.909,16.909Z" transform="translate(18.441 -4.941) rotate(60)" fill="none" stroke="#85a9ff" stroke-linecap="round" stroke-linejoin="round" stroke-width="2"/>
  </g>
</svg>
